<svg xmlns="http://www.w3.org/2000/svg" viewBox="0 0 80 80">
  <!-- Background circle -->
  <circle cx="40" cy="40" r="40" fill="#1a6b3c"/>

  <!-- Antenna -->
  <rect x="37" y="6" width="6" height="10" rx="3" fill="#fff" opacity="0.9"/>
  <circle cx="40" cy="5" r="4" fill="#e8891a"/>

  <!-- Head -->
  <rect x="16" y="16" width="48" height="36" rx="10" fill="#fff" opacity="0.95"/>

  <!-- Eyes -->
  <rect x="24" y="26" width="12" height="10" rx="3" fill="#1a6b3c"/>
  <rect x="44" y="26" width="12" height="10" rx="3" fill="#1a6b3c"/>
  <!-- Eye shine -->
  <circle cx="28" cy="29" r="2" fill="#fff" opacity="0.8"/>
  <circle cx="48" cy="29" r="2" fill="#fff" opacity="0.8"/>

  <!-- Mouth / smile -->
  <rect x="26" y="40" width="28" height="6" rx="3" fill="#e8891a" opacity="0.9"/>
  <!-- Teeth -->
  <rect x="28" y="40" width="6" height="4" rx="1" fill="#fff" opacity="0.7"/>
  <rect x="37" y="40" width="6" height="4" rx="1" fill="#fff" opacity="0.7"/>
  <rect x="46" y="40" width="6" height="4" rx="1" fill="#fff" opacity="0.7"/>

  <!-- Body -->
  <rect x="22" y="55" width="36" height="18" rx="8" fill="#fff" opacity="0.9"/>
  <!-- Body detail -->
  <circle cx="32" cy="64" r="3" fill="#1a6b3c" opacity="0.6"/>
  <circle cx="40" cy="64" r="3" fill="#e8891a" opacity="0.8"/>
  <circle cx="48" cy="64" r="3" fill="#1a6b3c" opacity="0.6"/>

  <!-- Arms -->
  <rect x="8" y="56" width="12" height="6" rx="3" fill="#fff" opacity="0.8"/>
  <rect x="60" y="56" width="12" height="6" rx="3" fill="#fff" opacity="0.8"/>
</svg>
