<svg xmlns="http://www.w3.org/2000/svg" viewBox="0 0 200 200">
  <circle cx="100" cy="100" r="100" fill="#1a6b3c"/>
  <ellipse cx="100" cy="175" rx="50" ry="38" fill="#c8590a"/>
  <rect x="63" y="132" width="74" height="55" rx="6" fill="#c8590a"/>
  <path d="M63 150 Q100 164 137 150" stroke="#e8891a" stroke-width="3" fill="none"/>
  <path d="M63 160 Q100 174 137 160" stroke="#ffd700" stroke-width="2" fill="none"/>
  <rect x="88" y="114" width="24" height="22" rx="8" fill="#c4845a"/>
  <path d="M78 132 Q100 144 122 132" stroke="#ffd700" stroke-width="2.5" fill="none"/>
  <circle cx="100" cy="144" r="4" fill="#ffd700"/>
  <circle cx="88" cy="138" r="2.5" fill="#ffd700"/>
  <circle cx="112" cy="138" r="2.5" fill="#ffd700"/>
  <ellipse cx="100" cy="88" rx="34" ry="38" fill="#c4845a"/>
  <ellipse cx="100" cy="55" rx="33" ry="22" fill="#1c0a00"/>
  <ellipse cx="100" cy="50" rx="26" ry="16" fill="#1c0a00"/>
  <ellipse cx="130" cy="73" rx="13" ry="9" fill="#2a1000"/>
  <circle cx="136" cy="71" r="8" fill="#1c0a00"/>
  <line x1="100" y1="42" x2="100" y2="56" stroke="#c4845a" stroke-width="2"/>
  <circle cx="84" cy="55" r="6" fill="#ff9933"/>
  <circle cx="84" cy="55" r="3" fill="#ff6600"/>
  <circle cx="74" cy="57" r="5" fill="#ffcc00"/>
  <circle cx="74" cy="57" r="2.5" fill="#ff9933"/>
  <circle cx="100" cy="74" r="4.5" fill="#e8891a"/>
  <circle cx="100" cy="74" r="2" fill="#cc2200"/>
  <ellipse cx="87" cy="86" rx="8" ry="5.5" fill="white"/>
  <ellipse cx="113" cy="86" rx="8" ry="5.5" fill="white"/>
  <circle cx="87" cy="86" r="4" fill="#2d1b0e"/>
  <circle cx="113" cy="86" r="4" fill="#2d1b0e"/>
  <circle cx="89" cy="85" r="1.5" fill="white"/>
  <circle cx="115" cy="85" r="1.5" fill="white"/>
  <path d="M80 79 Q87 76 95 78" stroke="#1c0a00" stroke-width="2.5" fill="none" stroke-linecap="round"/>
  <path d="M105 78 Q113 76 120 79" stroke="#1c0a00" stroke-width="2.5" fill="none" stroke-linecap="round"/>
  <ellipse cx="100" cy="96" rx="4" ry="3" fill="#b07040"/>
  <circle cx="104" cy="95" r="3" fill="none" stroke="#ffd700" stroke-width="1.5"/>
  <path d="M90 107 Q100 116 110 107" fill="#c0554d"/>
  <path d="M90 107 Q100 111 110 107" fill="#e07070"/>
  <circle cx="78" cy="97" r="9" fill="#e87050" opacity="0.2"/>
  <circle cx="122" cy="97" r="9" fill="#e87050" opacity="0.2"/>
  <circle cx="65" cy="93" r="5" fill="#ffd700"/>
  <line x1="65" y1="98" x2="65" y2="112" stroke="#ffd700" stroke-width="2.5"/>
  <circle cx="65" cy="113" r="4" fill="#e8891a"/>
  <circle cx="135" cy="93" r="5" fill="#ffd700"/>
  <line x1="135" y1="98" x2="135" y2="112" stroke="#ffd700" stroke-width="2.5"/>
  <circle cx="135" cy="113" r="4" fill="#e8891a"/>
  <path d="M50 175 Q100 198 150 175" stroke="#ffd700" stroke-width="2" fill="none"/>
</svg>
